# xmcd
#
# Track frame offsets: 
#        150
#        21432
#        39196
#        58746
#        81337
#        97084
#        111249
#        129522
#        147680
#        169038
#        185955
#        204658
#
# Disc length: 2990 seconds
#
# Revision: 3
# Processed by: cddbd v1.5.2PL0 Copyright (c) Steve Scherf et al.
# Submitted via: ExactAudioCopyFreeDBPlugin 1.0
#
DISCID=b70bac0c
DTITLE=鍾鎮濤 - 情有獨鍾
DYEAR=1988
DGENRE=Blues
TTITLE0=我家我心
TTITLE1=情變
TTITLE2=今天我非常寂寞(1987)
TTITLE3=誠懇
TTITLE4=兩點水
TTITLE5=無限旅程
TTITLE6=君子不變
TTITLE7=讓一切隨風
TTITLE8=爰永遠萬能
TTITLE9=等你
TTITLE10=仍是那樣
TTITLE11=晴朗
EXTD=YEAR: 1988
EXTT0=
EXTT1=
EXTT2=
EXTT3=
EXTT4=
EXTT5=
EXTT6=
EXTT7=
EXTT8=
EXTT9=
EXTT10=
EXTT11=
PLAYORDER=
